<svg width="333" height="64" viewBox="0 0 333 64" fill="none" xmlns="http://www.w3.org/2000/svg">
<g clip-path="url(#clip0_3485_57)">
<path d="M342.76 -0.484131V11.2454L329.552 0.993607H327.521V59.1794L331.492 64.1668H309.695L313.667 59.1794V0.993607H311.635L298.428 11.2454V-0.484131H342.76Z" fill="#29180A"/>
<path d="M296.637 47.5429C292.85 58.9954 283.799 65.6452 272.162 65.6452C254.983 65.6452 245.009 52.8997 245.009 31.0108C245.009 10.2301 254.983 -1.96118 272.162 -1.96118C280.567 -1.96118 288.232 1.82551 292.943 8.38296C297.006 14.0168 297.561 21.4979 293.682 25.5616C285.923 33.5045 273.363 23.345 281.213 14.571C285.185 10.1378 278.812 -0.48345 272.07 -0.48345C264.404 -0.48345 258.863 12.7238 258.863 31.0108C258.863 50.2213 264.404 64.1674 272.07 64.1674C276.595 64.1674 281.213 57.1482 283.153 47.6353L285.185 37.4759L296.637 47.5429Z" fill="#29180A"/>
<path d="M227.441 -0.484131L242.496 59.1794L247.76 64.1668H225.502L228.18 59.1794L223.1 38.9529H204.813L199.734 59.1794L202.505 64.1668H193.084L198.256 59.1794L213.126 -0.484131H227.441ZM205.183 37.4752H222.731L213.865 2.47134L205.183 37.4752Z" fill="#29180A"/>
<path d="M200.431 -0.484131V11.2454L187.223 0.993607H185.191V59.1794L189.163 64.1668H167.366L171.338 59.1794V0.993607H169.306L156.099 11.2454V-0.484131H200.431Z" fill="#29180A"/>
<path d="M147.482 64.1668L106.29 1.73247V59.1794L110.261 64.1668H100.841L104.812 59.1794V-0.484131H121.344L147.482 38.9529V4.50323L143.51 -0.484131H152.931L148.959 4.50323V64.1668H147.482Z" fill="#29180A"/>
<path d="M73.1035 65.6452C55.9249 65.6452 45.9502 52.8997 45.9502 31.0108C45.9502 10.2301 55.9249 -1.96118 73.1035 -1.96118C89.8203 -1.96118 99.5179 10.2301 99.5179 31.0108C99.5179 52.8997 89.8203 65.6452 73.1035 65.6452ZM73.0111 64.1674C80.3074 64.1674 85.6642 50.2213 85.6642 31.0108C85.6642 12.7238 80.3074 -0.48345 73.0111 -0.48345C65.3454 -0.48345 59.8039 12.7238 59.8039 31.0108C59.8039 50.2213 65.3454 64.1674 73.0111 64.1674Z" fill="#29180A"/>
<path d="M41.3879 47.5429C37.6013 58.9954 28.5502 65.6452 16.913 65.6452C-0.265559 65.6452 -10.2402 52.8997 -10.2402 31.0108C-10.2402 10.2301 -0.265559 -1.96118 16.913 -1.96118C25.3176 -1.96118 32.9834 1.82551 37.6936 8.38296C41.7574 14.0168 42.3115 21.4979 38.4325 25.5616C30.6744 33.5045 18.1137 23.345 25.9641 14.571C29.9355 10.1378 23.5628 -0.48345 16.8207 -0.48345C9.15497 -0.48345 3.61348 12.7238 3.61348 31.0108C3.61348 50.2213 9.15497 64.1674 16.8207 64.1674C21.3462 64.1674 25.9641 57.1482 27.9037 47.6353L29.9355 37.4759L41.3879 47.5429Z" fill="#29180A"/>
</g>
<defs>
<clipPath id="clip0_3485_57">
<rect width="332.52" height="63.684" fill="white"/>
</clipPath>
</defs>
</svg>
