<svg width="409" height="92" viewBox="0 0 409 92" fill="none" xmlns="http://www.w3.org/2000/svg">
<path d="M355.886 21.4781C355.886 5.84908 365.154 -3.31274 381.056 -3.31274C387.901 -3.31274 397.274 0.5945 406.331 7.1964V24.3074L391.271 0.998701C387.48 -0.483363 384.11 -1.29176 381.161 -1.29176C371.683 -1.56122 366.207 2.75023 366.207 10.2953C366.207 27.9452 408.437 48.0204 408.437 68.4997C408.437 85.4761 399.275 95.3115 383.478 95.1768C373.052 95.0421 363.785 91.2696 358.203 84.8024V67.9608L373.263 91.2696C376.738 92.3474 380.214 93.0211 383.373 93.0211C392.325 93.0211 397.485 88.4402 397.38 80.6257C397.169 64.9967 355.886 48.0204 355.886 21.4781Z" fill="#29180A"/>
<path d="M352.306 -1.15576V15.9553L337.246 0.999964H334.929V85.8815L339.458 93.1571H314.604L319.133 85.8815V0.999964H316.816L301.756 15.9553V-1.15576H352.306Z" fill="#29180A"/>
<path d="M247.652 85.8815V6.1198L243.124 -1.15576H298.203V15.9553L283.143 0.999964H272.612C265.029 0.999964 263.449 14.2038 263.449 19.0541V44.9228H280.931L286.618 39.1293V52.872L280.931 47.0785H263.449V72.9472C263.449 77.7976 265.029 91.0014 272.612 91.0014H283.143L298.203 76.046V93.1571H243.124L247.652 85.8815Z" fill="#29180A"/>
<path d="M207.714 95.3128C199.605 95.3128 192.022 90.193 186.967 81.3006C181.701 71.8693 182.333 61.3602 186.335 56.1056C194.866 44.7881 209.399 59.4739 200.552 72.2735C191.917 84.2647 194.866 93.0223 207.714 93.0223C219.509 93.0223 218.034 79.2796 217.929 60.1476V6.1198L213.401 -1.15576H238.254L233.726 6.1198V63.7854C233.726 83.7258 224.143 95.3128 207.714 95.3128Z" fill="#29180A"/>
<path d="M151.991 95.3115C132.403 95.3115 121.029 76.7184 121.029 44.7868C121.029 14.472 132.403 -3.31274 151.991 -3.31274C171.052 -3.31274 182.11 14.472 182.11 44.7868C182.11 76.7184 171.052 95.3115 151.991 95.3115ZM151.886 93.1558C160.205 93.1558 166.313 72.8112 166.313 44.7868C166.313 18.1097 160.205 -1.15703 151.886 -1.15703C143.145 -1.15703 136.826 18.1097 136.826 44.7868C136.826 72.8112 143.145 93.1558 151.886 93.1558Z" fill="#29180A"/>
<path d="M60.3727 85.8815V6.1198L55.8442 -1.15576H81.33C99.9704 -1.15576 110.818 8.81445 110.818 25.7908C110.818 38.4556 105.447 47.4827 95.7579 51.7942L110.818 85.8815L118.505 93.1571H95.8632L78.8025 54.4888H76.1696V85.8815L80.6981 93.1571H55.8442L60.3727 85.8815ZM76.1696 52.3331H81.2247C89.9657 52.3331 95.0207 42.4976 95.0207 25.7908C95.0207 10.1618 89.9657 0.999964 81.2247 0.999964H76.1696V52.3331Z" fill="#29180A"/>
<path d="M4.52846 85.8815V6.1198L0 -1.15576H25.4857C44.1261 -1.15576 54.9734 8.81445 54.9734 25.7908C54.9734 43.8449 44.1261 54.4888 25.4857 54.4888H20.3254V85.8815L24.8539 93.1571H0L4.52846 85.8815ZM20.3254 52.3331H25.3804C34.1214 52.3331 39.1764 42.4976 39.1764 25.7908C39.1764 10.1618 34.1214 0.999964 25.3804 0.999964H20.3254V52.3331Z" fill="#29180A"/>
</svg>
